# xmcd
#
# Track frame offsets: 
#        150
#        2823
#        22677
#        26996
#        45075
#        46078
#        66982
#        70259
#        87980
#        90734
#        109423
#        111528
#        134721
#        135970
#        162911
#        186401
#        188230
#        204275
#        229579
#        244347
#        275601
#        297961
#
# Disc length: 4194 seconds
#
# Revision: 1
# Processed by: cddbd v1.5.2PL0 Copyright (c) Steve Scherf et al.
# Submitted via: ExactAudioCopyFreeDBPlugin 1.0
#
DISCID=3d106016
DTITLE=Alexander O'Neal - Hearsay
DYEAR=1987
DGENRE=Soul
TTITLE0=Interlude
TTITLE1=(What Can I Say) To Make You Love Me
TTITLE2=Interlude
TTITLE3=Hearsay
TTITLE4=Interlude
TTITLE5=The Lovers
TTITLE6=Interlude
TTITLE7=Fake
TTITLE8=Interlude
TTITLE9=Criticize
TTITLE10=Interlude
TTITLE11=Never Knew Love Like This
TTITLE12=Interlude
TTITLE13=Sunshine
TTITLE14=Crying Overtime
TTITLE15=Interlude
TTITLE16=When The Party's Over
TTITLE17=Criticize (Critical Mix)
TTITLE18=Fake (Patty Mix)
TTITLE19=Never Knew Love Like This (Saturday Mix)
TTITLE20=Never Knew Love Like This (Street Mix)
TTITLE21=Hearsay '89
EXTD=
EXTT0=
EXTT1=
EXTT2=
EXTT3=
EXTT4=
EXTT5=
EXTT6=
EXTT7=
EXTT8=
EXTT9=
EXTT10=
EXTT11=
EXTT12=
EXTT13=
EXTT14=
EXTT15=
EXTT16=
EXTT17=
EXTT18=
EXTT19=
EXTT20=
EXTT21=
PLAYORDER=
